<?xml version="1.0" encoding="utf-8" standalone="no"?>
<!DOCTYPE svg PUBLIC "-//W3C//DTD SVG 1.1//EN"
  "http://www.w3.org/Graphics/SVG/1.1/DTD/svg11.dtd">
<svg xmlns:xlink="http://www.w3.org/1999/xlink" width="618.899375pt" height="446.178125pt" viewBox="0 0 618.899375 446.178125" xmlns="http://www.w3.org/2000/svg" version="1.1">
 <metadata>
  <rdf:RDF xmlns:dc="http://purl.org/dc/elements/1.1/" xmlns:cc="http://creativecommons.org/ns#" xmlns:rdf="http://www.w3.org/1999/02/22-rdf-syntax-ns#">
   <cc:Work>
    <dc:type rdf:resource="http://purl.org/dc/dcmitype/StillImage"/>
    <dc:date>2023-04-05T22:08:14.243888</dc:date>
    <dc:format>image/svg+xml</dc:format>
    <dc:creator>
     <cc:Agent>
      <dc:title>Matplotlib v3.5.0, https://matplotlib.org/</dc:title>
     </cc:Agent>
    </dc:creator>
   </cc:Work>
  </rdf:RDF>
 </metadata>
 <defs>
  <style type="text/css">*{stroke-linejoin: round; stroke-linecap: butt}</style>
 </defs>
 <g id="figure_1">
  <g id="patch_1">
   <path d="M 0 446.178125 
L 618.899375 446.178125 
L 618.899375 0 
L 0 0 
z
" style="fill: #ffffff"/>
  </g>
  <g id="axes_1">
   <g id="patch_2">
    <path d="M 53.699375 395.28 
L 611.699375 395.28 
L 611.699375 7.2 
L 53.699375 7.2 
z
" style="fill: #ffffff"/>
   </g>
   <g id="PathCollection_1">
    <defs>
     <path id="ma2783805e9" d="M 0 3 
C 0.795609 3 1.55874 2.683901 2.12132 2.12132 
C 2.683901 1.55874 3 0.795609 3 0 
C 3 -0.795609 2.683901 -1.55874 2.12132 -2.12132 
C 1.55874 -2.683901 0.795609 -3 0 -3 
C -0.795609 -3 -1.55874 -2.683901 -2.12132 -2.12132 
C -2.683901 -1.55874 -3 -0.795609 -3 0 
C -3 0.795609 -2.683901 1.55874 -2.12132 2.12132 
C -1.55874 2.683901 -0.795609 3 0 3 
z
" style="stroke: #1f77b4; stroke-opacity: 0.8"/>
    </defs>
    <g clip-path="url(#p520d408e4e)">
     <use xlink:href="#ma2783805e9" x="400.390669" y="377.64" style="fill: #1f77b4; fill-opacity: 0.8; stroke: #1f77b4; stroke-opacity: 0.8"/>
     <use xlink:href="#ma2783805e9" x="294.866548" y="300.121075" style="fill: #1f77b4; fill-opacity: 0.8; stroke: #1f77b4; stroke-opacity: 0.8"/>
     <use xlink:href="#ma2783805e9" x="446.201256" y="258.123302" style="fill: #1f77b4; fill-opacity: 0.8; stroke: #1f77b4; stroke-opacity: 0.8"/>
     <use xlink:href="#ma2783805e9" x="96.487628" y="228.320342" style="fill: #1f77b4; fill-opacity: 0.8; stroke: #1f77b4; stroke-opacity: 0.8"/>
     <use xlink:href="#ma2783805e9" x="414.440115" y="204.651604" style="fill: #1f77b4; fill-opacity: 0.8; stroke: #1f77b4; stroke-opacity: 0.8"/>
     <use xlink:href="#ma2783805e9" x="415.022971" y="184.592431" style="fill: #1f77b4; fill-opacity: 0.8; stroke: #1f77b4; stroke-opacity: 0.8"/>
     <use xlink:href="#ma2783805e9" x="421.421109" y="166.821252" style="fill: #1f77b4; fill-opacity: 0.8; stroke: #1f77b4; stroke-opacity: 0.8"/>
     <use xlink:href="#ma2783805e9" x="443.911453" y="150.530093" style="fill: #1f77b4; fill-opacity: 0.8; stroke: #1f77b4; stroke-opacity: 0.8"/>
     <use xlink:href="#ma2783805e9" x="53.699375" y="135.153032" style="fill: #1f77b4; fill-opacity: 0.8; stroke: #1f77b4; stroke-opacity: 0.8"/>
     <use xlink:href="#ma2783805e9" x="320.950056" y="120.230757" style="fill: #1f77b4; fill-opacity: 0.8; stroke: #1f77b4; stroke-opacity: 0.8"/>
     <use xlink:href="#ma2783805e9" x="124.420611" y="105.317805" style="fill: #1f77b4; fill-opacity: 0.8; stroke: #1f77b4; stroke-opacity: 0.8"/>
     <use xlink:href="#ma2783805e9" x="512.936133" y="89.879345" style="fill: #1f77b4; fill-opacity: 0.8; stroke: #1f77b4; stroke-opacity: 0.8"/>
     <use xlink:href="#ma2783805e9" x="611.699375" y="73.096091" style="fill: #1f77b4; fill-opacity: 0.8; stroke: #1f77b4; stroke-opacity: 0.8"/>
     <use xlink:href="#ma2783805e9" x="444.484195" y="53.286148" style="fill: #1f77b4; fill-opacity: 0.8; stroke: #1f77b4; stroke-opacity: 0.8"/>
     <use xlink:href="#ma2783805e9" x="320.950056" y="24.84" style="fill: #1f77b4; fill-opacity: 0.8; stroke: #1f77b4; stroke-opacity: 0.8"/>
    </g>
   </g>
   <g id="PolyCollection_1">
    <path d="M 53.699375 102.169306 
L 53.699375 322.229449 
L 59.335739 320.497759 
L 64.972102 318.76607 
L 70.608466 317.034381 
L 76.24483 315.285674 
L 81.881193 313.53487 
L 87.517557 311.693588 
L 93.15392 309.517924 
L 98.790284 307.34226 
L 104.426648 305.166596 
L 110.063011 302.986384 
L 115.699375 300.791584 
L 121.335739 298.596785 
L 126.972102 296.401985 
L 132.608466 294.207186 
L 138.24483 292.012386 
L 143.881193 289.621017 
L 149.517557 287.123939 
L 155.15392 284.626862 
L 160.790284 282.129784 
L 166.426648 279.632707 
L 172.063011 277.135629 
L 177.699375 274.638204 
L 183.335739 272.134409 
L 188.972102 269.630613 
L 194.608466 267.126818 
L 200.24483 265.195464 
L 205.881193 263.596491 
L 211.517557 261.955559 
L 217.15392 259.495749 
L 222.790284 256.934825 
L 228.426648 254.589416 
L 234.063011 251.812978 
L 239.699375 249.252054 
L 245.335739 246.69113 
L 250.972102 244.840938 
L 256.608466 243.391277 
L 262.24483 241.941615 
L 267.881193 240.491954 
L 273.517557 239.0246 
L 279.15392 237.34396 
L 284.790284 235.15575 
L 290.426648 232.994904 
L 296.063011 230.838368 
L 301.699375 231.299699 
L 307.335739 229.115093 
L 312.972102 227.06595 
L 318.608466 227.395349 
L 324.24483 226.444211 
L 329.881193 225.038551 
L 335.517557 223.906106 
L 341.15392 223.727054 
L 346.790284 224.232401 
L 352.426648 223.751448 
L 358.063011 222.447485 
L 363.699375 221.396278 
L 369.335739 221.945993 
L 374.972102 222.578208 
L 380.608466 222.560553 
L 386.24483 221.90196 
L 391.881193 221.017451 
L 397.517557 220.309126 
L 403.15392 219.742207 
L 408.790284 219.39107 
L 414.426648 218.442202 
L 420.063011 219.997588 
L 425.699375 221.583188 
L 431.335739 223.657833 
L 436.972102 225.230589 
L 442.608466 226.144487 
L 448.24483 227.101983 
L 453.881193 228.709881 
L 459.517557 228.916123 
L 465.15392 230.608517 
L 470.790284 231.233572 
L 476.426648 231.858628 
L 482.063011 232.966392 
L 487.699375 234.098009 
L 493.335739 234.622064 
L 498.972102 235.394383 
L 504.608466 236.574666 
L 510.24483 237.464602 
L 515.881193 238.099425 
L 521.517557 239.625363 
L 527.15392 241.223708 
L 532.790284 241.77124 
L 538.426648 242.842764 
L 544.063011 244.949582 
L 549.699375 246.186284 
L 555.335739 247.391124 
L 560.972102 248.571619 
L 566.608466 251.043164 
L 572.24483 252.13224 
L 577.881193 252.783206 
L 583.517557 253.43077 
L 589.15392 254.593272 
L 594.790284 256.487632 
L 600.426648 258.707168 
L 606.063011 260.925406 
L 611.699375 262.051298 
L 611.699375 81.33979 
L 611.699375 81.33979 
L 606.063011 82.600418 
L 600.426648 84.505554 
L 594.790284 85.556351 
L 589.15392 86.615775 
L 583.517557 87.677301 
L 577.881193 88.724955 
L 572.24483 90.928081 
L 566.608466 91.2995 
L 560.972102 92.81927 
L 555.335739 93.936246 
L 549.699375 94.960786 
L 544.063011 95.865441 
L 538.426648 96.460147 
L 532.790284 97.986715 
L 527.15392 99.504575 
L 521.517557 100.882018 
L 515.881193 102.011982 
L 510.24483 102.572722 
L 504.608466 103.04711 
L 498.972102 103.520229 
L 493.335739 104.44476 
L 487.699375 105.483011 
L 482.063011 106.531567 
L 476.426648 107.59243 
L 470.790284 108.647384 
L 465.15392 109.306134 
L 459.517557 109.96536 
L 453.881193 111.015134 
L 448.24483 111.96343 
L 442.608466 112.484631 
L 436.972102 113.77073 
L 431.335739 114.278514 
L 425.699375 114.115074 
L 420.063011 114.498903 
L 414.426648 115.287865 
L 408.790284 116.768642 
L 403.15392 117.853792 
L 397.517557 118.930982 
L 391.881193 118.859583 
L 386.24483 118.653305 
L 380.608466 118.682496 
L 374.972102 118.520143 
L 369.335739 119.024009 
L 363.699375 119.256825 
L 358.063011 119.224124 
L 352.426648 119.736415 
L 346.790284 119.943501 
L 341.15392 119.631275 
L 335.517557 119.562842 
L 329.881193 119.494409 
L 324.24483 119.4292 
L 318.608466 119.357542 
L 312.972102 119.21589 
L 307.335739 119.294078 
L 301.699375 119.316524 
L 296.063011 119.191894 
L 290.426648 119.018473 
L 284.790284 118.927654 
L 279.15392 118.850796 
L 273.517557 118.80103 
L 267.881193 117.868608 
L 262.24483 118.106956 
L 256.608466 118.172357 
L 250.972102 118.354575 
L 245.335739 117.498186 
L 239.699375 116.718857 
L 234.063011 116.698222 
L 228.426648 116.783901 
L 222.790284 116.869579 
L 217.15392 116.958309 
L 211.517557 117.07394 
L 205.881193 115.666776 
L 200.24483 114.147646 
L 194.608466 114.429538 
L 188.972102 114.726385 
L 183.335739 114.887753 
L 177.699375 114.277235 
L 172.063011 113.729246 
L 166.426648 113.456915 
L 160.790284 113.590453 
L 155.15392 113.124131 
L 149.517557 112.612197 
L 143.881193 112.100262 
L 138.24483 111.606565 
L 132.608466 111.127456 
L 126.972102 110.648348 
L 121.335739 110.169239 
L 115.699375 109.690131 
L 110.063011 108.893126 
L 104.426648 107.825865 
L 98.790284 107.563106 
L 93.15392 107.320373 
L 87.517557 107.106743 
L 81.881193 106.726798 
L 76.24483 106.25538 
L 70.608466 105.206245 
L 64.972102 103.706469 
L 59.335739 103.232244 
L 53.699375 102.169306 
z
" clip-path="url(#p520d408e4e)" style="fill: #ff0000; fill-opacity: 0.15"/>
   </g>
   <g id="matplotlib.axis_1">
    <g id="xtick_1">
     <g id="line2d_1">
      <defs>
       <path id="m1e69264749" d="M 0 0 
L 0 3.5 
" style="stroke: #000000; stroke-width: 0.8"/>
      </defs>
      <g>
       <use xlink:href="#m1e69264749" x="55.83538" y="395.28" style="stroke: #000000; stroke-width: 0.8"/>
      </g>
     </g>
     <g id="text_1">
      <!-- 3.15 -->
      <g transform="translate(40.08538 414.77875)scale(0.18 -0.18)">
       <defs>
        <path id="TimesNewRomanPSMT-33" d="M 325 3431 
Q 506 3859 782 4092 
Q 1059 4325 1472 4325 
Q 1981 4325 2253 3994 
Q 2459 3747 2459 3466 
Q 2459 3003 1878 2509 
Q 2269 2356 2469 2072 
Q 2669 1788 2669 1403 
Q 2669 853 2319 450 
Q 1863 -75 997 -75 
Q 569 -75 414 31 
Q 259 138 259 259 
Q 259 350 332 419 
Q 406 488 509 488 
Q 588 488 669 463 
Q 722 447 909 348 
Q 1097 250 1169 231 
Q 1284 197 1416 197 
Q 1734 197 1970 444 
Q 2206 691 2206 1028 
Q 2206 1275 2097 1509 
Q 2016 1684 1919 1775 
Q 1784 1900 1550 2001 
Q 1316 2103 1072 2103 
L 972 2103 
L 972 2197 
Q 1219 2228 1467 2375 
Q 1716 2522 1828 2728 
Q 1941 2934 1941 3181 
Q 1941 3503 1739 3701 
Q 1538 3900 1238 3900 
Q 753 3900 428 3381 
L 325 3431 
z
" transform="scale(0.015625)"/>
        <path id="TimesNewRomanPSMT-2e" d="M 800 606 
Q 947 606 1047 504 
Q 1147 403 1147 259 
Q 1147 116 1045 14 
Q 944 -88 800 -88 
Q 656 -88 554 14 
Q 453 116 453 259 
Q 453 406 554 506 
Q 656 606 800 606 
z
" transform="scale(0.015625)"/>
        <path id="TimesNewRomanPSMT-31" d="M 750 3822 
L 1781 4325 
L 1884 4325 
L 1884 747 
Q 1884 391 1914 303 
Q 1944 216 2037 169 
Q 2131 122 2419 116 
L 2419 0 
L 825 0 
L 825 116 
Q 1125 122 1212 167 
Q 1300 213 1334 289 
Q 1369 366 1369 747 
L 1369 3034 
Q 1369 3497 1338 3628 
Q 1316 3728 1258 3775 
Q 1200 3822 1119 3822 
Q 1003 3822 797 3725 
L 750 3822 
z
" transform="scale(0.015625)"/>
        <path id="TimesNewRomanPSMT-35" d="M 2778 4238 
L 2534 3706 
L 1259 3706 
L 981 3138 
Q 1809 3016 2294 2522 
Q 2709 2097 2709 1522 
Q 2709 1188 2573 903 
Q 2438 619 2231 419 
Q 2025 219 1772 97 
Q 1413 -75 1034 -75 
Q 653 -75 479 54 
Q 306 184 306 341 
Q 306 428 378 495 
Q 450 563 559 563 
Q 641 563 702 538 
Q 763 513 909 409 
Q 1144 247 1384 247 
Q 1750 247 2026 523 
Q 2303 800 2303 1197 
Q 2303 1581 2056 1914 
Q 1809 2247 1375 2428 
Q 1034 2569 447 2591 
L 1259 4238 
L 2778 4238 
z
" transform="scale(0.015625)"/>
       </defs>
       <use xlink:href="#TimesNewRomanPSMT-33"/>
       <use xlink:href="#TimesNewRomanPSMT-2e" x="50"/>
       <use xlink:href="#TimesNewRomanPSMT-31" x="75"/>
       <use xlink:href="#TimesNewRomanPSMT-35" x="125"/>
      </g>
     </g>
    </g>
    <g id="xtick_2">
     <g id="line2d_2">
      <g>
       <use xlink:href="#m1e69264749" x="140.004159" y="395.28" style="stroke: #000000; stroke-width: 0.8"/>
      </g>
     </g>
     <g id="text_2">
      <!-- 3.20 -->
      <g transform="translate(124.254159 414.77875)scale(0.18 -0.18)">
       <defs>
        <path id="TimesNewRomanPSMT-32" d="M 2934 816 
L 2638 0 
L 138 0 
L 138 116 
Q 1241 1122 1691 1759 
Q 2141 2397 2141 2925 
Q 2141 3328 1894 3587 
Q 1647 3847 1303 3847 
Q 991 3847 742 3664 
Q 494 3481 375 3128 
L 259 3128 
Q 338 3706 661 4015 
Q 984 4325 1469 4325 
Q 1984 4325 2329 3994 
Q 2675 3663 2675 3213 
Q 2675 2891 2525 2569 
Q 2294 2063 1775 1497 
Q 997 647 803 472 
L 1909 472 
Q 2247 472 2383 497 
Q 2519 522 2628 598 
Q 2738 675 2819 816 
L 2934 816 
z
" transform="scale(0.015625)"/>
        <path id="TimesNewRomanPSMT-30" d="M 231 2094 
Q 231 2819 450 3342 
Q 669 3866 1031 4122 
Q 1313 4325 1613 4325 
Q 2100 4325 2488 3828 
Q 2972 3213 2972 2159 
Q 2972 1422 2759 906 
Q 2547 391 2217 158 
Q 1888 -75 1581 -75 
Q 975 -75 572 641 
Q 231 1244 231 2094 
z
M 844 2016 
Q 844 1141 1059 588 
Q 1238 122 1591 122 
Q 1759 122 1940 273 
Q 2122 425 2216 781 
Q 2359 1319 2359 2297 
Q 2359 3022 2209 3506 
Q 2097 3866 1919 4016 
Q 1791 4119 1609 4119 
Q 1397 4119 1231 3928 
Q 1006 3669 925 3112 
Q 844 2556 844 2016 
z
" transform="scale(0.015625)"/>
       </defs>
       <use xlink:href="#TimesNewRomanPSMT-33"/>
       <use xlink:href="#TimesNewRomanPSMT-2e" x="50"/>
       <use xlink:href="#TimesNewRomanPSMT-32" x="75"/>
       <use xlink:href="#TimesNewRomanPSMT-30" x="125"/>
      </g>
     </g>
    </g>
    <g id="xtick_3">
     <g id="line2d_3">
      <g>
       <use xlink:href="#m1e69264749" x="224.172939" y="395.28" style="stroke: #000000; stroke-width: 0.8"/>
      </g>
     </g>
     <g id="text_3">
      <!-- 3.25 -->
      <g transform="translate(208.422939 414.77875)scale(0.18 -0.18)">
       <use xlink:href="#TimesNewRomanPSMT-33"/>
       <use xlink:href="#TimesNewRomanPSMT-2e" x="50"/>
       <use xlink:href="#TimesNewRomanPSMT-32" x="75"/>
       <use xlink:href="#TimesNewRomanPSMT-35" x="125"/>
      </g>
     </g>
    </g>
    <g id="xtick_4">
     <g id="line2d_4">
      <g>
       <use xlink:href="#m1e69264749" x="308.341718" y="395.28" style="stroke: #000000; stroke-width: 0.8"/>
      </g>
     </g>
     <g id="text_4">
      <!-- 3.30 -->
      <g transform="translate(292.591718 414.77875)scale(0.18 -0.18)">
       <use xlink:href="#TimesNewRomanPSMT-33"/>
       <use xlink:href="#TimesNewRomanPSMT-2e" x="50"/>
       <use xlink:href="#TimesNewRomanPSMT-33" x="75"/>
       <use xlink:href="#TimesNewRomanPSMT-30" x="125"/>
      </g>
     </g>
    </g>
    <g id="xtick_5">
     <g id="line2d_5">
      <g>
       <use xlink:href="#m1e69264749" x="392.510497" y="395.28" style="stroke: #000000; stroke-width: 0.8"/>
      </g>
     </g>
     <g id="text_5">
      <!-- 3.35 -->
      <g transform="translate(376.760497 414.77875)scale(0.18 -0.18)">
       <use xlink:href="#TimesNewRomanPSMT-33"/>
       <use xlink:href="#TimesNewRomanPSMT-2e" x="50"/>
       <use xlink:href="#TimesNewRomanPSMT-33" x="75"/>
       <use xlink:href="#TimesNewRomanPSMT-35" x="125"/>
      </g>
     </g>
    </g>
    <g id="xtick_6">
     <g id="line2d_6">
      <g>
       <use xlink:href="#m1e69264749" x="476.679277" y="395.28" style="stroke: #000000; stroke-width: 0.8"/>
      </g>
     </g>
     <g id="text_6">
      <!-- 3.40 -->
      <g transform="translate(460.929277 414.77875)scale(0.18 -0.18)">
       <defs>
        <path id="TimesNewRomanPSMT-34" d="M 2978 1563 
L 2978 1119 
L 2409 1119 
L 2409 0 
L 1894 0 
L 1894 1119 
L 100 1119 
L 100 1519 
L 2066 4325 
L 2409 4325 
L 2409 1563 
L 2978 1563 
z
M 1894 1563 
L 1894 3666 
L 406 1563 
L 1894 1563 
z
" transform="scale(0.015625)"/>
       </defs>
       <use xlink:href="#TimesNewRomanPSMT-33"/>
       <use xlink:href="#TimesNewRomanPSMT-2e" x="50"/>
       <use xlink:href="#TimesNewRomanPSMT-34" x="75"/>
       <use xlink:href="#TimesNewRomanPSMT-30" x="125"/>
      </g>
     </g>
    </g>
    <g id="xtick_7">
     <g id="line2d_7">
      <g>
       <use xlink:href="#m1e69264749" x="560.848056" y="395.28" style="stroke: #000000; stroke-width: 0.8"/>
      </g>
     </g>
     <g id="text_7">
      <!-- 3.45 -->
      <g transform="translate(545.098056 414.77875)scale(0.18 -0.18)">
       <use xlink:href="#TimesNewRomanPSMT-33"/>
       <use xlink:href="#TimesNewRomanPSMT-2e" x="50"/>
       <use xlink:href="#TimesNewRomanPSMT-34" x="75"/>
       <use xlink:href="#TimesNewRomanPSMT-35" x="125"/>
      </g>
     </g>
    </g>
    <g id="text_8">
     <!-- X -->
     <g transform="translate(326.199687 435.127812)scale(0.18 -0.18)">
      <defs>
       <path id="TimesNewRomanPSMT-58" d="M 2613 2347 
L 3522 991 
Q 3900 428 4083 279 
Q 4266 131 4547 116 
L 4547 0 
L 2728 0 
L 2728 116 
Q 2909 119 2997 153 
Q 3063 181 3105 239 
Q 3147 297 3147 356 
Q 3147 428 3119 500 
Q 3097 553 2947 775 
L 2228 1863 
L 1341 725 
Q 1200 544 1172 483 
Q 1144 422 1144 356 
Q 1144 256 1228 190 
Q 1313 125 1550 116 
L 1550 0 
L 47 0 
L 47 116 
Q 206 131 322 181 
Q 516 263 691 400 
Q 866 538 1091 822 
L 2091 2084 
L 1256 3306 
Q 916 3803 678 3958 
Q 441 4113 131 4122 
L 131 4238 
L 2091 4238 
L 2091 4122 
Q 1841 4113 1748 4041 
Q 1656 3969 1656 3881 
Q 1656 3766 1806 3544 
L 2456 2572 
L 3209 3525 
Q 3341 3694 3370 3756 
Q 3400 3819 3400 3884 
Q 3400 3950 3363 4000 
Q 3316 4066 3244 4092 
Q 3172 4119 2947 4122 
L 2947 4238 
L 4450 4238 
L 4450 4122 
Q 4272 4113 4159 4066 
Q 3991 3994 3850 3872 
Q 3709 3750 3453 3422 
L 2613 2347 
z
" transform="scale(0.015625)"/>
      </defs>
      <use xlink:href="#TimesNewRomanPSMT-58"/>
     </g>
    </g>
   </g>
   <g id="matplotlib.axis_2">
    <g id="ytick_1">
     <g id="line2d_8">
      <defs>
       <path id="mde8c81e1ac" d="M 0 0 
L -3.5 0 
" style="stroke: #000000; stroke-width: 0.8"/>
      </defs>
      <g>
       <use xlink:href="#mde8c81e1ac" x="53.699375" y="371.933783" style="stroke: #000000; stroke-width: 0.8"/>
      </g>
     </g>
     <g id="text_9">
      <!-- −3 -->
      <g transform="translate(27.549062 378.183158)scale(0.18 -0.18)">
       <defs>
        <path id="TimesNewRomanPSMT-2212" d="M 3484 2000 
L 116 2000 
L 116 2256 
L 3484 2256 
L 3484 2000 
z
" transform="scale(0.015625)"/>
       </defs>
       <use xlink:href="#TimesNewRomanPSMT-2212"/>
       <use xlink:href="#TimesNewRomanPSMT-33" x="56.396484"/>
      </g>
     </g>
    </g>
    <g id="ytick_2">
     <g id="line2d_9">
      <g>
       <use xlink:href="#mde8c81e1ac" x="53.699375" y="287.861341" style="stroke: #000000; stroke-width: 0.8"/>
      </g>
     </g>
     <g id="text_10">
      <!-- −2 -->
      <g transform="translate(27.549062 294.110716)scale(0.18 -0.18)">
       <use xlink:href="#TimesNewRomanPSMT-2212"/>
       <use xlink:href="#TimesNewRomanPSMT-32" x="56.396484"/>
      </g>
     </g>
    </g>
    <g id="ytick_3">
     <g id="line2d_10">
      <g>
       <use xlink:href="#mde8c81e1ac" x="53.699375" y="203.788899" style="stroke: #000000; stroke-width: 0.8"/>
      </g>
     </g>
     <g id="text_11">
      <!-- −1 -->
      <g transform="translate(27.549062 210.038274)scale(0.18 -0.18)">
       <use xlink:href="#TimesNewRomanPSMT-2212"/>
       <use xlink:href="#TimesNewRomanPSMT-31" x="56.396484"/>
      </g>
     </g>
    </g>
    <g id="ytick_4">
     <g id="line2d_11">
      <g>
       <use xlink:href="#mde8c81e1ac" x="53.699375" y="119.716457" style="stroke: #000000; stroke-width: 0.8"/>
      </g>
     </g>
     <g id="text_12">
      <!-- 0 -->
      <g transform="translate(37.699375 125.965832)scale(0.18 -0.18)">
       <use xlink:href="#TimesNewRomanPSMT-30"/>
      </g>
     </g>
    </g>
    <g id="ytick_5">
     <g id="line2d_12">
      <g>
       <use xlink:href="#mde8c81e1ac" x="53.699375" y="35.644015" style="stroke: #000000; stroke-width: 0.8"/>
      </g>
     </g>
     <g id="text_13">
      <!-- 1 -->
      <g transform="translate(37.699375 41.89339)scale(0.18 -0.18)">
       <use xlink:href="#TimesNewRomanPSMT-31"/>
      </g>
     </g>
    </g>
    <g id="text_14">
     <!-- Y -->
     <g transform="translate(19.69875 207.739687)rotate(-90)scale(0.18 -0.18)">
      <defs>
       <path id="TimesNewRomanPSMT-59" d="M 3050 4238 
L 4528 4238 
L 4528 4122 
L 4447 4122 
Q 4366 4122 4209 4050 
Q 4053 3978 3925 3843 
Q 3797 3709 3609 3406 
L 2588 1797 
L 2588 734 
Q 2588 344 2675 247 
Q 2794 116 3050 116 
L 3188 116 
L 3188 0 
L 1388 0 
L 1388 116 
L 1538 116 
Q 1806 116 1919 278 
Q 1988 378 1988 734 
L 1988 1738 
L 825 3513 
Q 619 3825 545 3903 
Q 472 3981 241 4091 
Q 178 4122 59 4122 
L 59 4238 
L 1872 4238 
L 1872 4122 
L 1778 4122 
Q 1631 4122 1507 4053 
Q 1384 3984 1384 3847 
Q 1384 3734 1575 3441 
L 2459 2075 
L 3291 3381 
Q 3478 3675 3478 3819 
Q 3478 3906 3433 3975 
Q 3388 4044 3303 4083 
Q 3219 4122 3050 4122 
L 3050 4238 
z
" transform="scale(0.015625)"/>
      </defs>
      <use xlink:href="#TimesNewRomanPSMT-59"/>
     </g>
    </g>
   </g>
   <g id="line2d_13">
    <path d="M 53.699375 182.610056 
L 59.335739 182.27741 
L 64.972102 181.944764 
L 70.608466 181.612118 
L 76.24483 181.279472 
L 81.881193 180.946826 
L 87.517557 180.61418 
L 93.15392 180.281534 
L 98.790284 179.948888 
L 104.426648 179.616243 
L 110.063011 179.283597 
L 115.699375 178.950951 
L 121.335739 178.618305 
L 126.972102 178.285659 
L 132.608466 177.953013 
L 138.24483 177.620367 
L 143.881193 177.287721 
L 149.517557 176.955075 
L 155.15392 176.622429 
L 160.790284 176.289783 
L 166.426648 175.957138 
L 172.063011 175.624492 
L 177.699375 175.291846 
L 183.335739 174.9592 
L 188.972102 174.626554 
L 194.608466 174.293908 
L 200.24483 173.961262 
L 205.881193 173.628616 
L 211.517557 173.29597 
L 217.15392 172.963324 
L 222.790284 172.630678 
L 228.426648 172.298032 
L 234.063011 171.965387 
L 239.699375 171.632741 
L 245.335739 171.300095 
L 250.972102 170.967449 
L 256.608466 170.634803 
L 262.24483 170.302157 
L 267.881193 169.969511 
L 273.517557 169.636865 
L 279.15392 169.304219 
L 284.790284 168.971573 
L 290.426648 168.638927 
L 296.063011 168.306282 
L 301.699375 167.973636 
L 307.335739 167.64099 
L 312.972102 167.308344 
L 318.608466 166.975698 
L 324.24483 166.643052 
L 329.881193 166.310406 
L 335.517557 165.97776 
L 341.15392 165.645114 
L 346.790284 165.312468 
L 352.426648 164.979822 
L 358.063011 164.647177 
L 363.699375 164.314531 
L 369.335739 163.981885 
L 374.972102 163.649239 
L 380.608466 163.316593 
L 386.24483 162.983947 
L 391.881193 162.651301 
L 397.517557 162.318655 
L 403.15392 161.986009 
L 408.790284 161.653363 
L 414.426648 161.320717 
L 420.063011 160.988072 
L 425.699375 160.655426 
L 431.335739 160.32278 
L 436.972102 159.990134 
L 442.608466 159.657488 
L 448.24483 159.324842 
L 453.881193 158.992196 
L 459.517557 158.65955 
L 465.15392 158.326904 
L 470.790284 157.994258 
L 476.426648 157.661612 
L 482.063011 157.328967 
L 487.699375 156.996321 
L 493.335739 156.663675 
L 498.972102 156.331029 
L 504.608466 155.998383 
L 510.24483 155.665737 
L 515.881193 155.333091 
L 521.517557 155.000445 
L 527.15392 154.667799 
L 532.790284 154.335153 
L 538.426648 154.002507 
L 544.063011 153.669862 
L 549.699375 153.337216 
L 555.335739 153.00457 
L 560.972102 152.671924 
L 566.608466 152.339278 
L 572.24483 152.006632 
L 577.881193 151.673986 
L 583.517557 151.34134 
L 589.15392 151.008694 
L 594.790284 150.676048 
L 600.426648 150.343402 
L 606.063011 150.010757 
L 611.699375 149.678111 
" clip-path="url(#p520d408e4e)" style="fill: none; stroke: #ff0000; stroke-width: 2; stroke-linecap: square"/>
   </g>
   <g id="patch_3">
    <path d="M 53.699375 395.28 
L 53.699375 7.2 
" style="fill: none; stroke: #000000; stroke-width: 0.8; stroke-linejoin: miter; stroke-linecap: square"/>
   </g>
   <g id="patch_4">
    <path d="M 611.699375 395.28 
L 611.699375 7.2 
" style="fill: none; stroke: #000000; stroke-width: 0.8; stroke-linejoin: miter; stroke-linecap: square"/>
   </g>
   <g id="patch_5">
    <path d="M 53.699375 395.28 
L 611.699375 395.28 
" style="fill: none; stroke: #000000; stroke-width: 0.8; stroke-linejoin: miter; stroke-linecap: square"/>
   </g>
   <g id="patch_6">
    <path d="M 53.699375 7.2 
L 611.699375 7.2 
" style="fill: none; stroke: #000000; stroke-width: 0.8; stroke-linejoin: miter; stroke-linecap: square"/>
   </g>
  </g>
 </g>
 <defs>
  <clipPath id="p520d408e4e">
   <rect x="53.699375" y="7.2" width="558" height="388.08"/>
  </clipPath>
 </defs>
</svg>
